{
	"asset":{
		"version":"2.0",
		"generator":"Created using the official Cinema 4D glTF Exporter. Previous Build: 1.000x275765."
	},
	"scenes":[{
		"nodes":[0]
	}],
	"nodes":[{
		"translation":[59.15705490112305,
		41.274375915527347,
		-3.1458218097686769],
		"rotation":[0.0,
		0.0,
		0.0,
		-1.0],
		"scale":[1.0,
		1.0,
		-1.0],
		"mesh":0,
		"name":"狼.1"
	}],
	"meshes":[{
		"primitives":[{
			"attributes":{
				"POSITION":1,
				"TEXCOORD_0":2
			},
			"indices":0,
			"material":0
		}]
	}],
	"accessors":[{
		"bufferView":0,
		"type":"SCALAR",
		"min":[0],
		"componentType":5123,
		"count":1545,
		"byteOffset":0,
		"max":[605]
	},
	{
		"bufferView":1,
		"type":"VEC3",
		"min":[-374.8493957519531,
		-226.85568237304688,
		-65.07455444335938],
		"componentType":5126,
		"count":606,
		"byteOffset":0,
		"max":[199.34791564941407,
		115.33765411376953,
		58.78291320800781]
	},
	{
		"bufferView":1,
		"type":"VEC2",
		"min":[0.0,
		0.0],
		"componentType":5126,
		"count":606,
		"byteOffset":12,
		"max":[1.0,
		1.0]
	}],
	"bufferViews":[{
		"buffer":0,
		"byteOffset":0,
		"byteLength":3090,
		"target":34963
	},
	{
		"buffer":0,
		"byteOffset":3092,
		"byteLength":12120,
		"target":34962,
		"byteStride":20
	}],
	"buffers":[{
		"uri":"data:application/octet-stream;base64,",
		"byteLength":15212
	}],
	"materials":[{
		"pbrMetallicRoughness":{
			"baseColorFactor":[0.3299999999999999,
			0.44333333333333327,
			0.5,
			1.0],
			"metallicFactor":0.0,
			"roughnessFactor":0.5
		},
		"emissiveFactor":[0.0,
		0.0,
		0.0],
		"alphaMode":"OPAQUE",
		"doubleSided":false
	}]
}